<svg xmlns="http://www.w3.org/2000/svg" xmlns:xlink="http://www.w3.org/1999/xlink" width="425" height="877" viewBox="0 0 425 877"><defs><filter id="a" x="-18" y="-15" width="461" height="120" filterUnits="userSpaceOnUse"><feOffset dy="3" input="SourceAlpha"/><feGaussianBlur stdDeviation="6" result="b"/><feFlood flood-opacity="0.078"/><feComposite operator="in" in2="b"/><feComposite in="SourceGraphic"/></filter><clipPath id="c"><rect width="29" height="24" rx="4" transform="translate(37 28.786)" fill="#efefef"/></clipPath><clipPath id="d"><rect width="14" height="14" transform="translate(96.004 37.004)" fill="#fff" stroke="#707070" stroke-width="1"/></clipPath><clipPath id="e"><rect width="426" height="802" fill="none"/></clipPath><clipPath id="g"><rect width="425" height="877"/></clipPath></defs><g id="f" clip-path="url(#g)"><rect width="425" height="877" fill="#fff"/><rect width="425" height="143" fill="#f3f2f2"/><g transform="matrix(1, 0, 0, 1, 0, 0)" filter="url(#a)"><rect width="425" height="84" fill="#fff"/></g><g transform="translate(42 33)"><g transform="translate(-37 -28.786)" clip-path="url(#c)"><g transform="translate(40.77 31.26)"><path d="M18.339,29.013,8.71,19.385l9.628-9.628" transform="translate(-8.71 -9.756)" fill="none" stroke="#4a4545" stroke-linecap="round" stroke-linejoin="round" stroke-width="3"/><path d="M10.454,22.3H29.978" transform="translate(-9.116 -12.671)" fill="none" stroke="#4a4545" stroke-linecap="round" stroke-linejoin="round" stroke-width="3"/></g></g></g><g transform="translate(3)"><rect width="265" height="31" rx="3" transform="translate(77 29)" fill="#f5f4f4"/><g transform="translate(-3.004 0.996)" clip-path="url(#d)"><path d="M15.709,14.982l-3.9-3.917a5.677,5.677,0,1,0-.748.748l3.917,3.9Zm-12.9-7.53A4.645,4.645,0,1,1,7.452,12.1,4.645,4.645,0,0,1,2.807,7.452Z" transform="translate(94.266 35.266)"/></g><text transform="translate(116 49)" fill="#707070" font-size="12" font-family="SegoeUI, Segoe UI"><tspan x="0" y="0">Cari Pesan</tspan></text></g><g transform="translate(354 26.5)"><path d="M3,9A1.5,1.5,0,0,1,4.5,7.5h27a1.5,1.5,0,0,1,0,3H4.5A1.5,1.5,0,0,1,3,9Z" fill="#4a4545"/><path d="M3,18.048a1.5,1.5,0,0,1,1.5-1.5h27a1.5,1.5,0,0,1,0,3H4.5A1.5,1.5,0,0,1,3,18.048Z" fill="#4a4545"/><path d="M4.5,25.6a1.5,1.5,0,0,0,0,3h27a1.5,1.5,0,0,0,0-3Z" fill="#4a4545"/></g><rect width="425" height="82" transform="translate(0 97)" fill="#fff"/><g transform="translate(-1 92)" clip-path="url(#e)"><g transform="translate(1 -159)"><g transform="translate(-1 159)" fill="#fff" stroke="#dcdcdc" stroke-width="1"><rect width="426" height="79" stroke="none"/><rect x="0.5" y="0.5" width="425" height="78" fill="none"/></g><text transform="translate(93 189)" fill="#707070" font-size="12" font-family="SegoeUI-Bold, Segoe UI" font-weight="700"><tspan x="0" y="0">Uji rizki</tspan></text><text transform="translate(93 215)" fill="#707070" font-size="8" font-family="SegoeUI-Italic, Segoe UI" font-style="italic"><tspan x="0" y="0">Dec 10, 2020 </tspan><tspan y="0" font-family="SegoeUI-Bold, Segoe UI" font-weight="700" font-style="normal">07.00AM</tspan></text><text transform="translate(93 193)" fill="#707070" font-size="8" font-family="SegoeUI, Segoe UI"><tspan x="0" y="9">Reseller. Male</tspan></text><path d="M1.093,28.021A1.094,1.094,0,0,1,0,26.927V14.154C-.086,1.648,15.133-4.71,23.949,4.153A14.035,14.035,0,0,1,13.934,28.021a13.829,13.829,0,0,1-6.253-1.469,4.845,4.845,0,0,0-5.6.935l-.214.214a1.093,1.093,0,0,1-.774.32Zm4.444-4.164a6.959,6.959,0,0,1,3.123.739,11.664,11.664,0,0,0,5.285,1.237C24.4,25.849,29.757,13.079,22.4,5.692A11.845,11.845,0,0,0,2.188,14.138s0,.007,0,.011V24.706A7.047,7.047,0,0,1,5.537,23.857Zm5.18-9.835a1.367,1.367,0,1,1-1.367-1.367A1.367,1.367,0,0,1,10.718,14.022Zm3.336-1.367a1.367,1.367,0,1,0,1.367,1.367A1.367,1.367,0,0,0,14.053,12.655Zm4.7,0a1.367,1.367,0,1,0,1.367,1.367A1.367,1.367,0,0,0,18.756,12.655Z" transform="translate(359 183.479)" fill="#707070"/><g transform="translate(37 176)" fill="#fff" stroke="#707070" stroke-width="1"><circle cx="23" cy="23" r="23" stroke="none"/><circle cx="23" cy="23" r="22.5" fill="none"/></g><circle cx="7.5" cy="7.5" r="7.5" transform="translate(376 180)" fill="#fb426e"/><text transform="translate(381 190)" fill="#fff" font-size="7" font-family="SegoeUI-Bold, Segoe UI" font-weight="700"><tspan x="0" y="0">1</tspan></text></g><g transform="translate(1 -80)"><g transform="translate(-1 159)" fill="#fff" stroke="#dcdcdc" stroke-width="1"><rect width="426" height="79" stroke="none"/><rect x="0.5" y="0.5" width="425" height="78" fill="none"/></g><text transform="translate(93 189)" fill="#707070" font-size="12" font-family="SegoeUI-Bold, Segoe UI" font-weight="700"><tspan x="0" y="0">Uji rizki</tspan></text><text transform="translate(93 215)" fill="#707070" font-size="8" font-family="SegoeUI-Italic, Segoe UI" font-style="italic"><tspan x="0" y="0">Dec 10, 2020 </tspan><tspan y="0" font-family="SegoeUI-Bold, Segoe UI" font-weight="700" font-style="normal">07.00AM</tspan></text><text transform="translate(93 193)" fill="#707070" font-size="8" font-family="SegoeUI, Segoe UI"><tspan x="0" y="9">Reseller. Male</tspan></text><path d="M1.093,28.021A1.094,1.094,0,0,1,0,26.927V14.154C-.086,1.648,15.133-4.71,23.949,4.153A14.035,14.035,0,0,1,13.934,28.021a13.829,13.829,0,0,1-6.253-1.469,4.845,4.845,0,0,0-5.6.935l-.214.214a1.093,1.093,0,0,1-.774.32Zm4.444-4.164a6.959,6.959,0,0,1,3.123.739,11.664,11.664,0,0,0,5.285,1.237C24.4,25.849,29.757,13.079,22.4,5.692A11.845,11.845,0,0,0,2.188,14.138s0,.007,0,.011V24.706A7.047,7.047,0,0,1,5.537,23.857Zm5.18-9.835a1.367,1.367,0,1,1-1.367-1.367A1.367,1.367,0,0,1,10.718,14.022Zm3.336-1.367a1.367,1.367,0,1,0,1.367,1.367A1.367,1.367,0,0,0,14.053,12.655Zm4.7,0a1.367,1.367,0,1,0,1.367,1.367A1.367,1.367,0,0,0,18.756,12.655Z" transform="translate(359 183.479)" fill="#707070"/><g transform="translate(37 176)" fill="#fff" stroke="#707070" stroke-width="1"><circle cx="23" cy="23" r="23" stroke="none"/><circle cx="23" cy="23" r="22.5" fill="none"/></g><circle cx="7.5" cy="7.5" r="7.5" transform="translate(376 180)" fill="#fb426e"/><text transform="translate(381 190)" fill="#fff" font-size="7" font-family="SegoeUI-Bold, Segoe UI" font-weight="700"><tspan x="0" y="0">1</tspan></text></g><g transform="translate(1 -1)"><g transform="translate(-1 159)" fill="#fff" stroke="#dcdcdc" stroke-width="1"><rect width="426" height="79" stroke="none"/><rect x="0.5" y="0.5" width="425" height="78" fill="none"/></g><text transform="translate(93 189)" fill="#707070" font-size="12" font-family="SegoeUI-Bold, Segoe UI" font-weight="700"><tspan x="0" y="0">Uji rizki</tspan></text><text transform="translate(93 215)" fill="#707070" font-size="8" font-family="SegoeUI-Italic, Segoe UI" font-style="italic"><tspan x="0" y="0">Dec 10, 2020 </tspan><tspan y="0" font-family="SegoeUI-Bold, Segoe UI" font-weight="700" font-style="normal">07.00AM</tspan></text><text transform="translate(93 193)" fill="#707070" font-size="8" font-family="SegoeUI, Segoe UI"><tspan x="0" y="9">Reseller. Male</tspan></text><path d="M1.093,28.021A1.094,1.094,0,0,1,0,26.927V14.154C-.086,1.648,15.133-4.71,23.949,4.153A14.035,14.035,0,0,1,13.934,28.021a13.829,13.829,0,0,1-6.253-1.469,4.845,4.845,0,0,0-5.6.935l-.214.214a1.093,1.093,0,0,1-.774.32Zm4.444-4.164a6.959,6.959,0,0,1,3.123.739,11.664,11.664,0,0,0,5.285,1.237C24.4,25.849,29.757,13.079,22.4,5.692A11.845,11.845,0,0,0,2.188,14.138s0,.007,0,.011V24.706A7.047,7.047,0,0,1,5.537,23.857Zm5.18-9.835a1.367,1.367,0,1,1-1.367-1.367A1.367,1.367,0,0,1,10.718,14.022Zm3.336-1.367a1.367,1.367,0,1,0,1.367,1.367A1.367,1.367,0,0,0,14.053,12.655Zm4.7,0a1.367,1.367,0,1,0,1.367,1.367A1.367,1.367,0,0,0,18.756,12.655Z" transform="translate(359 183.479)" fill="#707070"/><g transform="translate(37 176)" fill="#fff" stroke="#707070" stroke-width="1"><circle cx="23" cy="23" r="23" stroke="none"/><circle cx="23" cy="23" r="22.5" fill="none"/></g><circle cx="7.5" cy="7.5" r="7.5" transform="translate(376 180)" fill="#fb426e"/><text transform="translate(381 190)" fill="#fff" font-size="7" font-family="SegoeUI-Bold, Segoe UI" font-weight="700"><tspan x="0" y="0">1</tspan></text></g><g transform="translate(1 78)"><g transform="translate(-1 159)" fill="#fff" stroke="#dcdcdc" stroke-width="1"><rect width="426" height="79" stroke="none"/><rect x="0.5" y="0.5" width="425" height="78" fill="none"/></g><text transform="translate(93 189)" fill="#707070" font-size="12" font-family="SegoeUI-Bold, Segoe UI" font-weight="700"><tspan x="0" y="0">Uji rizki</tspan></text><text transform="translate(93 215)" fill="#707070" font-size="8" font-family="SegoeUI-Italic, Segoe UI" font-style="italic"><tspan x="0" y="0">Dec 10, 2020 </tspan><tspan y="0" font-family="SegoeUI-Bold, Segoe UI" font-weight="700" font-style="normal">07.00AM</tspan></text><text transform="translate(93 193)" fill="#707070" font-size="8" font-family="SegoeUI, Segoe UI"><tspan x="0" y="9">Reseller. Male</tspan></text><path d="M1.093,28.021A1.094,1.094,0,0,1,0,26.927V14.154C-.086,1.648,15.133-4.71,23.949,4.153A14.035,14.035,0,0,1,13.934,28.021a13.829,13.829,0,0,1-6.253-1.469,4.845,4.845,0,0,0-5.6.935l-.214.214a1.093,1.093,0,0,1-.774.32Zm4.444-4.164a6.959,6.959,0,0,1,3.123.739,11.664,11.664,0,0,0,5.285,1.237C24.4,25.849,29.757,13.079,22.4,5.692A11.845,11.845,0,0,0,2.188,14.138s0,.007,0,.011V24.706A7.047,7.047,0,0,1,5.537,23.857Zm5.18-9.835a1.367,1.367,0,1,1-1.367-1.367A1.367,1.367,0,0,1,10.718,14.022Zm3.336-1.367a1.367,1.367,0,1,0,1.367,1.367A1.367,1.367,0,0,0,14.053,12.655Zm4.7,0a1.367,1.367,0,1,0,1.367,1.367A1.367,1.367,0,0,0,18.756,12.655Z" transform="translate(359 183.479)" fill="#707070"/><g transform="translate(37 176)" fill="#fff" stroke="#707070" stroke-width="1"><circle cx="23" cy="23" r="23" stroke="none"/><circle cx="23" cy="23" r="22.5" fill="none"/></g><circle cx="7.5" cy="7.5" r="7.5" transform="translate(376 180)" fill="#fb426e"/><text transform="translate(381 190)" fill="#fff" font-size="7" font-family="SegoeUI-Bold, Segoe UI" font-weight="700"><tspan x="0" y="0">1</tspan></text></g><g transform="translate(1 157)"><g transform="translate(-1 159)" fill="#fff" stroke="#dcdcdc" stroke-width="1"><rect width="426" height="79" stroke="none"/><rect x="0.5" y="0.5" width="425" height="78" fill="none"/></g><text transform="translate(93 189)" fill="#707070" font-size="12" font-family="SegoeUI-Bold, Segoe UI" font-weight="700"><tspan x="0" y="0">Uji rizki</tspan></text><text transform="translate(93 215)" fill="#707070" font-size="8" font-family="SegoeUI-Italic, Segoe UI" font-style="italic"><tspan x="0" y="0">Dec 10, 2020 </tspan><tspan y="0" font-family="SegoeUI-Bold, Segoe UI" font-weight="700" font-style="normal">07.00AM</tspan></text><text transform="translate(93 193)" fill="#707070" font-size="8" font-family="SegoeUI, Segoe UI"><tspan x="0" y="9">Reseller. Male</tspan></text><path d="M1.093,28.021A1.094,1.094,0,0,1,0,26.927V14.154C-.086,1.648,15.133-4.71,23.949,4.153A14.035,14.035,0,0,1,13.934,28.021a13.829,13.829,0,0,1-6.253-1.469,4.845,4.845,0,0,0-5.6.935l-.214.214a1.093,1.093,0,0,1-.774.32Zm4.444-4.164a6.959,6.959,0,0,1,3.123.739,11.664,11.664,0,0,0,5.285,1.237C24.4,25.849,29.757,13.079,22.4,5.692A11.845,11.845,0,0,0,2.188,14.138s0,.007,0,.011V24.706A7.047,7.047,0,0,1,5.537,23.857Zm5.18-9.835a1.367,1.367,0,1,1-1.367-1.367A1.367,1.367,0,0,1,10.718,14.022Zm3.336-1.367a1.367,1.367,0,1,0,1.367,1.367A1.367,1.367,0,0,0,14.053,12.655Zm4.7,0a1.367,1.367,0,1,0,1.367,1.367A1.367,1.367,0,0,0,18.756,12.655Z" transform="translate(359 183.479)" fill="#707070"/><g transform="translate(37 176)" fill="#fff" stroke="#707070" stroke-width="1"><circle cx="23" cy="23" r="23" stroke="none"/><circle cx="23" cy="23" r="22.5" fill="none"/></g><circle cx="7.5" cy="7.5" r="7.5" transform="translate(376 180)" fill="#fb426e"/><text transform="translate(381 190)" fill="#fff" font-size="7" font-family="SegoeUI-Bold, Segoe UI" font-weight="700"><tspan x="0" y="0">1</tspan></text></g><g transform="translate(1 236)"><g transform="translate(-1 159)" fill="#fff" stroke="#dcdcdc" stroke-width="1"><rect width="426" height="79" stroke="none"/><rect x="0.5" y="0.5" width="425" height="78" fill="none"/></g><text transform="translate(93 189)" fill="#707070" font-size="12" font-family="SegoeUI-Bold, Segoe UI" font-weight="700"><tspan x="0" y="0">Uji rizki</tspan></text><text transform="translate(93 215)" fill="#707070" font-size="8" font-family="SegoeUI-Italic, Segoe UI" font-style="italic"><tspan x="0" y="0">Dec 10, 2020 </tspan><tspan y="0" font-family="SegoeUI-Bold, Segoe UI" font-weight="700" font-style="normal">07.00AM</tspan></text><text transform="translate(93 193)" fill="#707070" font-size="8" font-family="SegoeUI, Segoe UI"><tspan x="0" y="9">Reseller. Male</tspan></text><path d="M1.093,28.021A1.094,1.094,0,0,1,0,26.927V14.154C-.086,1.648,15.133-4.71,23.949,4.153A14.035,14.035,0,0,1,13.934,28.021a13.829,13.829,0,0,1-6.253-1.469,4.845,4.845,0,0,0-5.6.935l-.214.214a1.093,1.093,0,0,1-.774.32Zm4.444-4.164a6.959,6.959,0,0,1,3.123.739,11.664,11.664,0,0,0,5.285,1.237C24.4,25.849,29.757,13.079,22.4,5.692A11.845,11.845,0,0,0,2.188,14.138s0,.007,0,.011V24.706A7.047,7.047,0,0,1,5.537,23.857Zm5.18-9.835a1.367,1.367,0,1,1-1.367-1.367A1.367,1.367,0,0,1,10.718,14.022Zm3.336-1.367a1.367,1.367,0,1,0,1.367,1.367A1.367,1.367,0,0,0,14.053,12.655Zm4.7,0a1.367,1.367,0,1,0,1.367,1.367A1.367,1.367,0,0,0,18.756,12.655Z" transform="translate(359 183.479)" fill="#707070"/><g transform="translate(37 176)" fill="#fff" stroke="#707070" stroke-width="1"><circle cx="23" cy="23" r="23" stroke="none"/><circle cx="23" cy="23" r="22.5" fill="none"/></g><circle cx="7.5" cy="7.5" r="7.5" transform="translate(376 180)" fill="#fb426e"/><text transform="translate(381 190)" fill="#fff" font-size="7" font-family="SegoeUI-Bold, Segoe UI" font-weight="700"><tspan x="0" y="0">1</tspan></text></g><g transform="translate(1 315)"><g transform="translate(-1 159)" fill="#fff" stroke="#dcdcdc" stroke-width="1"><rect width="426" height="79" stroke="none"/><rect x="0.5" y="0.5" width="425" height="78" fill="none"/></g><text transform="translate(93 189)" fill="#707070" font-size="12" font-family="SegoeUI-Bold, Segoe UI" font-weight="700"><tspan x="0" y="0">Uji rizki</tspan></text><text transform="translate(93 215)" fill="#707070" font-size="8" font-family="SegoeUI-Italic, Segoe UI" font-style="italic"><tspan x="0" y="0">Dec 10, 2020 </tspan><tspan y="0" font-family="SegoeUI-Bold, Segoe UI" font-weight="700" font-style="normal">07.00AM</tspan></text><text transform="translate(93 193)" fill="#707070" font-size="8" font-family="SegoeUI, Segoe UI"><tspan x="0" y="9">Reseller. Male</tspan></text><path d="M1.093,28.021A1.094,1.094,0,0,1,0,26.927V14.154C-.086,1.648,15.133-4.71,23.949,4.153A14.035,14.035,0,0,1,13.934,28.021a13.829,13.829,0,0,1-6.253-1.469,4.845,4.845,0,0,0-5.6.935l-.214.214a1.093,1.093,0,0,1-.774.32Zm4.444-4.164a6.959,6.959,0,0,1,3.123.739,11.664,11.664,0,0,0,5.285,1.237C24.4,25.849,29.757,13.079,22.4,5.692A11.845,11.845,0,0,0,2.188,14.138s0,.007,0,.011V24.706A7.047,7.047,0,0,1,5.537,23.857Zm5.18-9.835a1.367,1.367,0,1,1-1.367-1.367A1.367,1.367,0,0,1,10.718,14.022Zm3.336-1.367a1.367,1.367,0,1,0,1.367,1.367A1.367,1.367,0,0,0,14.053,12.655Zm4.7,0a1.367,1.367,0,1,0,1.367,1.367A1.367,1.367,0,0,0,18.756,12.655Z" transform="translate(359 183.479)" fill="#707070"/><g transform="translate(37 176)" fill="#fff" stroke="#707070" stroke-width="1"><circle cx="23" cy="23" r="23" stroke="none"/><circle cx="23" cy="23" r="22.5" fill="none"/></g><circle cx="7.5" cy="7.5" r="7.5" transform="translate(376 180)" fill="#fb426e"/><text transform="translate(381 190)" fill="#fff" font-size="7" font-family="SegoeUI-Bold, Segoe UI" font-weight="700"><tspan x="0" y="0">1</tspan></text></g><g transform="translate(1 394)"><g transform="translate(-1 159)" fill="#fff" stroke="#dcdcdc" stroke-width="1"><rect width="426" height="79" stroke="none"/><rect x="0.5" y="0.5" width="425" height="78" fill="none"/></g><text transform="translate(93 189)" fill="#707070" font-size="12" font-family="SegoeUI-Bold, Segoe UI" font-weight="700"><tspan x="0" y="0">Uji rizki</tspan></text><text transform="translate(93 215)" fill="#707070" font-size="8" font-family="SegoeUI-Italic, Segoe UI" font-style="italic"><tspan x="0" y="0">Dec 10, 2020 </tspan><tspan y="0" font-family="SegoeUI-Bold, Segoe UI" font-weight="700" font-style="normal">07.00AM</tspan></text><text transform="translate(93 193)" fill="#707070" font-size="8" font-family="SegoeUI, Segoe UI"><tspan x="0" y="9">Reseller. Male</tspan></text><path d="M1.093,28.021A1.094,1.094,0,0,1,0,26.927V14.154C-.086,1.648,15.133-4.71,23.949,4.153A14.035,14.035,0,0,1,13.934,28.021a13.829,13.829,0,0,1-6.253-1.469,4.845,4.845,0,0,0-5.6.935l-.214.214a1.093,1.093,0,0,1-.774.32Zm4.444-4.164a6.959,6.959,0,0,1,3.123.739,11.664,11.664,0,0,0,5.285,1.237C24.4,25.849,29.757,13.079,22.4,5.692A11.845,11.845,0,0,0,2.188,14.138s0,.007,0,.011V24.706A7.047,7.047,0,0,1,5.537,23.857Zm5.18-9.835a1.367,1.367,0,1,1-1.367-1.367A1.367,1.367,0,0,1,10.718,14.022Zm3.336-1.367a1.367,1.367,0,1,0,1.367,1.367A1.367,1.367,0,0,0,14.053,12.655Zm4.7,0a1.367,1.367,0,1,0,1.367,1.367A1.367,1.367,0,0,0,18.756,12.655Z" transform="translate(359 183.479)" fill="#707070"/><g transform="translate(37 176)" fill="#fff" stroke="#707070" stroke-width="1"><circle cx="23" cy="23" r="23" stroke="none"/><circle cx="23" cy="23" r="22.5" fill="none"/></g><circle cx="7.5" cy="7.5" r="7.5" transform="translate(376 180)" fill="#fb426e"/><text transform="translate(381 190)" fill="#fff" font-size="7" font-family="SegoeUI-Bold, Segoe UI" font-weight="700"><tspan x="0" y="0">1</tspan></text></g><g transform="translate(1 473)"><g transform="translate(-1 159)" fill="#fff" stroke="#dcdcdc" stroke-width="1"><rect width="426" height="79" stroke="none"/><rect x="0.5" y="0.5" width="425" height="78" fill="none"/></g><text transform="translate(93 189)" fill="#707070" font-size="12" font-family="SegoeUI-Bold, Segoe UI" font-weight="700"><tspan x="0" y="0">Uji rizki</tspan></text><text transform="translate(93 215)" fill="#707070" font-size="8" font-family="SegoeUI-Italic, Segoe UI" font-style="italic"><tspan x="0" y="0">Dec 10, 2020 </tspan><tspan y="0" font-family="SegoeUI-Bold, Segoe UI" font-weight="700" font-style="normal">07.00AM</tspan></text><text transform="translate(93 193)" fill="#707070" font-size="8" font-family="SegoeUI, Segoe UI"><tspan x="0" y="9">Reseller. Male</tspan></text><path d="M1.093,28.021A1.094,1.094,0,0,1,0,26.927V14.154C-.086,1.648,15.133-4.71,23.949,4.153A14.035,14.035,0,0,1,13.934,28.021a13.829,13.829,0,0,1-6.253-1.469,4.845,4.845,0,0,0-5.6.935l-.214.214a1.093,1.093,0,0,1-.774.32Zm4.444-4.164a6.959,6.959,0,0,1,3.123.739,11.664,11.664,0,0,0,5.285,1.237C24.4,25.849,29.757,13.079,22.4,5.692A11.845,11.845,0,0,0,2.188,14.138s0,.007,0,.011V24.706A7.047,7.047,0,0,1,5.537,23.857Zm5.18-9.835a1.367,1.367,0,1,1-1.367-1.367A1.367,1.367,0,0,1,10.718,14.022Zm3.336-1.367a1.367,1.367,0,1,0,1.367,1.367A1.367,1.367,0,0,0,14.053,12.655Zm4.7,0a1.367,1.367,0,1,0,1.367,1.367A1.367,1.367,0,0,0,18.756,12.655Z" transform="translate(359 183.479)" fill="#707070"/><g transform="translate(37 176)" fill="#fff" stroke="#707070" stroke-width="1"><circle cx="23" cy="23" r="23" stroke="none"/><circle cx="23" cy="23" r="22.5" fill="none"/></g><circle cx="7.5" cy="7.5" r="7.5" transform="translate(376 180)" fill="#fb426e"/><text transform="translate(381 190)" fill="#fff" font-size="7" font-family="SegoeUI-Bold, Segoe UI" font-weight="700"><tspan x="0" y="0">1</tspan></text></g><g transform="translate(1 552)"><g transform="translate(-1 159)" fill="#fff" stroke="#dcdcdc" stroke-width="1"><rect width="426" height="79" stroke="none"/><rect x="0.5" y="0.5" width="425" height="78" fill="none"/></g><text transform="translate(93 189)" fill="#707070" font-size="12" font-family="SegoeUI-Bold, Segoe UI" font-weight="700"><tspan x="0" y="0">Uji rizki</tspan></text><text transform="translate(93 215)" fill="#707070" font-size="8" font-family="SegoeUI-Italic, Segoe UI" font-style="italic"><tspan x="0" y="0">Dec 10, 2020 </tspan><tspan y="0" font-family="SegoeUI-Bold, Segoe UI" font-weight="700" font-style="normal">07.00AM</tspan></text><text transform="translate(93 193)" fill="#707070" font-size="8" font-family="SegoeUI, Segoe UI"><tspan x="0" y="9">Reseller. Male</tspan></text><path d="M1.093,28.021A1.094,1.094,0,0,1,0,26.927V14.154C-.086,1.648,15.133-4.71,23.949,4.153A14.035,14.035,0,0,1,13.934,28.021a13.829,13.829,0,0,1-6.253-1.469,4.845,4.845,0,0,0-5.6.935l-.214.214a1.093,1.093,0,0,1-.774.32Zm4.444-4.164a6.959,6.959,0,0,1,3.123.739,11.664,11.664,0,0,0,5.285,1.237C24.4,25.849,29.757,13.079,22.4,5.692A11.845,11.845,0,0,0,2.188,14.138s0,.007,0,.011V24.706A7.047,7.047,0,0,1,5.537,23.857Zm5.18-9.835a1.367,1.367,0,1,1-1.367-1.367A1.367,1.367,0,0,1,10.718,14.022Zm3.336-1.367a1.367,1.367,0,1,0,1.367,1.367A1.367,1.367,0,0,0,14.053,12.655Zm4.7,0a1.367,1.367,0,1,0,1.367,1.367A1.367,1.367,0,0,0,18.756,12.655Z" transform="translate(359 183.479)" fill="#707070"/><g transform="translate(37 176)" fill="#fff" stroke="#707070" stroke-width="1"><circle cx="23" cy="23" r="23" stroke="none"/><circle cx="23" cy="23" r="22.5" fill="none"/></g><circle cx="7.5" cy="7.5" r="7.5" transform="translate(376 180)" fill="#fb426e"/><text transform="translate(381 190)" fill="#fff" font-size="7" font-family="SegoeUI-Bold, Segoe UI" font-weight="700"><tspan x="0" y="0">1</tspan></text></g><g transform="translate(1 631)"><g transform="translate(-1 159)" fill="#fff" stroke="#dcdcdc" stroke-width="1"><rect width="426" height="79" stroke="none"/><rect x="0.5" y="0.5" width="425" height="78" fill="none"/></g><text transform="translate(93 189)" fill="#707070" font-size="12" font-family="SegoeUI-Bold, Segoe UI" font-weight="700"><tspan x="0" y="0">Uji rizki</tspan></text><text transform="translate(93 215)" fill="#707070" font-size="8" font-family="SegoeUI-Italic, Segoe UI" font-style="italic"><tspan x="0" y="0">Dec 10, 2020 </tspan><tspan y="0" font-family="SegoeUI-Bold, Segoe UI" font-weight="700" font-style="normal">07.00AM</tspan></text><text transform="translate(93 193)" fill="#707070" font-size="8" font-family="SegoeUI, Segoe UI"><tspan x="0" y="9">Reseller. Male</tspan></text><path d="M1.093,28.021A1.094,1.094,0,0,1,0,26.927V14.154C-.086,1.648,15.133-4.71,23.949,4.153A14.035,14.035,0,0,1,13.934,28.021a13.829,13.829,0,0,1-6.253-1.469,4.845,4.845,0,0,0-5.6.935l-.214.214a1.093,1.093,0,0,1-.774.32Zm4.444-4.164a6.959,6.959,0,0,1,3.123.739,11.664,11.664,0,0,0,5.285,1.237C24.4,25.849,29.757,13.079,22.4,5.692A11.845,11.845,0,0,0,2.188,14.138s0,.007,0,.011V24.706A7.047,7.047,0,0,1,5.537,23.857Zm5.18-9.835a1.367,1.367,0,1,1-1.367-1.367A1.367,1.367,0,0,1,10.718,14.022Zm3.336-1.367a1.367,1.367,0,1,0,1.367,1.367A1.367,1.367,0,0,0,14.053,12.655Zm4.7,0a1.367,1.367,0,1,0,1.367,1.367A1.367,1.367,0,0,0,18.756,12.655Z" transform="translate(359 183.479)" fill="#707070"/><g transform="translate(37 176)" fill="#fff" stroke="#707070" stroke-width="1"><circle cx="23" cy="23" r="23" stroke="none"/><circle cx="23" cy="23" r="22.5" fill="none"/></g><circle cx="7.5" cy="7.5" r="7.5" transform="translate(376 180)" fill="#fb426e"/><text transform="translate(381 190)" fill="#fff" font-size="7" font-family="SegoeUI-Bold, Segoe UI" font-weight="700"><tspan x="0" y="0">1</tspan></text></g></g><g transform="translate(354 26.5)"><path d="M3,9A1.5,1.5,0,0,1,4.5,7.5h27a1.5,1.5,0,0,1,0,3H4.5A1.5,1.5,0,0,1,3,9Z" fill="#4a4545"/><path d="M3,18.048a1.5,1.5,0,0,1,1.5-1.5h27a1.5,1.5,0,0,1,0,3H4.5A1.5,1.5,0,0,1,3,18.048Z" fill="#4a4545"/><path d="M4.5,25.6a1.5,1.5,0,0,0,0,3h27a1.5,1.5,0,0,0,0-3Z" fill="#4a4545"/></g></g></svg>