<svg xmlns="http://www.w3.org/2000/svg" xmlns:xlink="http://www.w3.org/1999/xlink" width="425" height="882" viewBox="0 0 425 882"><defs><filter id="a" x="-18" y="-15" width="461" height="120" filterUnits="userSpaceOnUse"><feOffset dy="3" input="SourceAlpha"/><feGaussianBlur stdDeviation="6" result="b"/><feFlood flood-opacity="0.078"/><feComposite operator="in" in2="b"/><feComposite in="SourceGraphic"/></filter><clipPath id="c"><rect width="29" height="24" rx="4" transform="translate(37 28.786)" fill="#efefef"/></clipPath><clipPath id="e"><rect width="425" height="882"/></clipPath></defs><g id="d" clip-path="url(#e)"><rect width="425" height="882" fill="#fff"/><rect width="425" height="174" fill="#f3f2f2"/><g transform="matrix(1, 0, 0, 1, 0, 0)" filter="url(#a)"><rect width="425" height="84" fill="#fff"/></g><rect width="425" height="785" transform="translate(0 97)" fill="#fff"/><g transform="translate(35 116)"><rect width="354" height="341" rx="16" transform="translate(0)" fill="#d9eeee"/><ellipse cx="28" cy="29" rx="28" ry="29" transform="translate(260 40)" fill="#d9eeee"/></g><text transform="translate(37 508)" fill="#707070" font-size="18" font-family="SegoeUI, Segoe UI"><tspan x="0" y="0">Nama Produk.....</tspan></text><text transform="translate(37 723)" fill="#707070" font-size="18" font-family="SegoeUI-Bold, Segoe UI" font-weight="700"><tspan x="0" y="0">Description</tspan></text><text transform="translate(169 723)" fill="#707070" font-size="14" font-family="SegoeUI, Segoe UI"><tspan x="0" y="0">Pesan</tspan></text><text transform="translate(277 546)" fill="#707070" font-size="18" font-family="SegoeUI-Bold, Segoe UI" font-weight="700"><tspan x="0" y="0">Rp.1.050.000</tspan></text><text transform="translate(68 546)" fill="#707070" font-size="18" font-family="SegoeUI-Bold, Segoe UI" font-weight="700"><tspan x="0" y="0">5.0</tspan></text><text transform="translate(100 544)" fill="#707070" font-size="16" font-family="SegoeUI, Segoe UI"><tspan x="0" y="0">(12)</tspan></text><text transform="translate(37 738)" fill="#707070" font-size="14" font-family="SegoeUI, Segoe UI"><tspan x="0" y="15">Lorem ipsum dolor sit amet, consetetur sadipscing elitr, </tspan><tspan x="0" y="34">sed diam nonumy eirmod tempor invidunt ut labore et </tspan><tspan x="0" y="53">dolore magna aliquyam erat, sed diam voluptua. At vero </tspan><tspan x="0" y="72">eos et accusam et justo duo dolores et ea</tspan></text><path d="M20,7.392a.868.868,0,0,1-.313.577l-4.363,4.255,1.034,6.01a1.786,1.786,0,0,1,.012.241.709.709,0,0,1-.126.427.425.425,0,0,1-.367.174.97.97,0,0,1-.481-.144L10,16.094,4.6,18.93a1.02,1.02,0,0,1-.481.144.436.436,0,0,1-.378-.174.712.712,0,0,1-.127-.427,1.965,1.965,0,0,1,.024-.241l1.034-6.01L.3,7.969A.916.916,0,0,1,0,7.392q0-.444.673-.553l6.034-.877L9.411.493Q9.64,0,10,0t.589.493l2.7,5.469,6.034.877q.673.108.673.553Z" transform="translate(39 528.925)" fill="#d9eeee"/><line y2="22" transform="translate(151.5 707.5)" fill="none" stroke="#707070" stroke-linecap="round" stroke-width="1"/><text transform="translate(73 50)" fill="#707070" font-size="18" font-family="SegoeUI-Bold, Segoe UI" font-weight="700"><tspan x="0" y="0">Detail Produk</tspan></text><g transform="translate(35 31)"><g transform="translate(-37 -28.786)" clip-path="url(#c)"><g transform="translate(40.77 31.26)"><path d="M18.339,29.013,8.71,19.385l9.628-9.628" transform="translate(-8.71 -9.756)" fill="none" stroke="#4a4545" stroke-linecap="round" stroke-linejoin="round" stroke-width="3"/><path d="M10.454,22.3H29.978" transform="translate(-9.116 -12.671)" fill="none" stroke="#4a4545" stroke-linecap="round" stroke-linejoin="round" stroke-width="3"/></g></g></g><path d="M14.5.857,6,9.358l8.29,8.29,2.09-2.09-6.2-6.2,6.412-6.412Z" transform="translate(47 51.143)" fill="#fff" fill-rule="evenodd"/><rect width="425" height="15" transform="translate(0 575)" fill="#efeeee"/><rect width="64" height="64" rx="32" transform="translate(44 610)" fill="#d9d9d9"/><text transform="translate(127.038 638.855)" fill="#707070" font-size="14" font-family="SegoeUI-Bold, Segoe UI" font-weight="700"><tspan x="0" y="0">Nama Reseller / Pembeli</tspan></text><text transform="translate(126.963 657.145)" fill="#707070" font-size="12" font-family="SegoeUI, Segoe UI"><tspan x="0" y="0">Bandung Antapani</tspan></text></g></svg>