<svg xmlns="http://www.w3.org/2000/svg" xmlns:xlink="http://www.w3.org/1999/xlink" width="425" height="1366" viewBox="0 0 425 1366"><defs><filter id="a" x="-18" y="-15" width="461" height="120" filterUnits="userSpaceOnUse"><feOffset dy="3" input="SourceAlpha"/><feGaussianBlur stdDeviation="6" result="b"/><feFlood flood-opacity="0.078"/><feComposite operator="in" in2="b"/><feComposite in="SourceGraphic"/></filter><clipPath id="c"><rect width="29" height="24" rx="4" transform="translate(37 28.786)" fill="#efefef"/></clipPath><clipPath id="d"><rect width="14" height="14" transform="translate(96.004 37.004)" fill="#fff" stroke="#707070" stroke-width="1"/></clipPath><clipPath id="e"><rect width="368" height="1166" fill="none"/></clipPath><filter id="f" x="28" y="153" width="368" height="133" filterUnits="userSpaceOnUse"><feOffset dy="3" input="SourceAlpha"/><feGaussianBlur stdDeviation="3" result="g"/><feFlood flood-opacity="0.078"/><feComposite operator="in" in2="g"/><feComposite in="SourceGraphic"/></filter><filter id="h" x="28" y="283" width="368" height="133" filterUnits="userSpaceOnUse"><feOffset dy="3" input="SourceAlpha"/><feGaussianBlur stdDeviation="3" result="i"/><feFlood flood-opacity="0.078"/><feComposite operator="in" in2="i"/><feComposite in="SourceGraphic"/></filter><filter id="j" x="28" y="413" width="368" height="133" filterUnits="userSpaceOnUse"><feOffset dy="3" input="SourceAlpha"/><feGaussianBlur stdDeviation="3" result="k"/><feFlood flood-opacity="0.078"/><feComposite operator="in" in2="k"/><feComposite in="SourceGraphic"/></filter><filter id="l" x="28" y="543" width="368" height="133" filterUnits="userSpaceOnUse"><feOffset dy="3" input="SourceAlpha"/><feGaussianBlur stdDeviation="3" result="m"/><feFlood flood-opacity="0.078"/><feComposite operator="in" in2="m"/><feComposite in="SourceGraphic"/></filter><filter id="n" x="28" y="673" width="368" height="133" filterUnits="userSpaceOnUse"><feOffset dy="3" input="SourceAlpha"/><feGaussianBlur stdDeviation="3" result="o"/><feFlood flood-opacity="0.078"/><feComposite operator="in" in2="o"/><feComposite in="SourceGraphic"/></filter><filter id="p" x="28" y="803" width="368" height="133" filterUnits="userSpaceOnUse"><feOffset dy="3" input="SourceAlpha"/><feGaussianBlur stdDeviation="3" result="q"/><feFlood flood-opacity="0.078"/><feComposite operator="in" in2="q"/><feComposite in="SourceGraphic"/></filter><filter id="r" x="28" y="933" width="368" height="133" filterUnits="userSpaceOnUse"><feOffset dy="3" input="SourceAlpha"/><feGaussianBlur stdDeviation="3" result="s"/><feFlood flood-opacity="0.078"/><feComposite operator="in" in2="s"/><feComposite in="SourceGraphic"/></filter><filter id="t" x="28" y="1063" width="368" height="133" filterUnits="userSpaceOnUse"><feOffset dy="3" input="SourceAlpha"/><feGaussianBlur stdDeviation="3" result="u"/><feFlood flood-opacity="0.078"/><feComposite operator="in" in2="u"/><feComposite in="SourceGraphic"/></filter><filter id="v" x="28" y="1193" width="368" height="133" filterUnits="userSpaceOnUse"><feOffset dy="3" input="SourceAlpha"/><feGaussianBlur stdDeviation="3" result="w"/><feFlood flood-opacity="0.078"/><feComposite operator="in" in2="w"/><feComposite in="SourceGraphic"/></filter><clipPath id="y"><rect width="425" height="1366"/></clipPath></defs><g id="x" clip-path="url(#y)"><rect width="425" height="1366" fill="#fff"/><rect width="425" height="143" fill="#f3f2f2"/><g transform="matrix(1, 0, 0, 1, 0, 0)" filter="url(#a)"><rect width="425" height="84" fill="#fff"/></g><rect width="425" height="82" transform="translate(0 97)" fill="#fff"/><text transform="translate(37 133)" fill="#707070" font-size="18" font-family="SegoeUI-Bold, Segoe UI" font-weight="700"><tspan x="0" y="0">Pesanan</tspan></text><g transform="translate(42 33)"><g transform="translate(-37 -28.786)" clip-path="url(#c)"><g transform="translate(40.77 31.26)"><path d="M18.339,29.013,8.71,19.385l9.628-9.628" transform="translate(-8.71 -9.756)" fill="none" stroke="#4a4545" stroke-linecap="round" stroke-linejoin="round" stroke-width="3"/><path d="M10.454,22.3H29.978" transform="translate(-9.116 -12.671)" fill="none" stroke="#4a4545" stroke-linecap="round" stroke-linejoin="round" stroke-width="3"/></g></g></g><g transform="translate(3)"><rect width="265" height="31" rx="3" transform="translate(77 29)" fill="#f5f4f4"/><g transform="translate(-3.004 0.996)" clip-path="url(#d)"><path d="M15.709,14.982l-3.9-3.917a5.677,5.677,0,1,0-.748.748l3.917,3.9Zm-12.9-7.53A4.645,4.645,0,1,1,7.452,12.1,4.645,4.645,0,0,1,2.807,7.452Z" transform="translate(94.266 35.266)"/></g><text transform="translate(116 49)" fill="#707070" font-size="12" font-family="SegoeUI, Segoe UI"><tspan x="0" y="0">Cari Pesan</tspan></text></g><g transform="translate(354 26.5)"><path d="M3,9A1.5,1.5,0,0,1,4.5,7.5h27a1.5,1.5,0,0,1,0,3H4.5A1.5,1.5,0,0,1,3,9Z" fill="#4a4545"/><path d="M3,18.048a1.5,1.5,0,0,1,1.5-1.5h27a1.5,1.5,0,0,1,0,3H4.5A1.5,1.5,0,0,1,3,18.048Z" fill="#4a4545"/><path d="M4.5,25.6a1.5,1.5,0,0,0,0,3h27a1.5,1.5,0,0,0,0-3Z" fill="#4a4545"/></g><g transform="translate(270 -10)"><g transform="translate(37 124)" fill="none" stroke="#dcdcdc" stroke-width="1"><rect width="80" height="24" rx="4" stroke="none"/><rect x="0.5" y="0.5" width="79" height="23" rx="3.5" fill="none"/></g><g transform="translate(2.577 0.986)"><g transform="translate(49.173 125.471)"><path d="M16.318,6.51h-2.06a2.513,2.513,0,0,0-4.924,0H2.25v1H9.334a2.513,2.513,0,0,0,4.924,0h2.06ZM11.8,8.519A1.507,1.507,0,1,1,13.3,7.012,1.481,1.481,0,0,1,11.8,8.519Z"/><path d="M2.25,23.264H4.31a2.513,2.513,0,0,0,4.924,0h7.084v-1H9.233a2.513,2.513,0,0,0-4.924,0H2.25Zm4.522-2.01a1.507,1.507,0,1,1-1.507,1.507A1.481,1.481,0,0,1,6.772,21.255Z" transform="translate(0 -8.716)"/></g><text transform="translate(73 139)" fill="#707070" font-size="10" font-family="SegoeUI-Bold, Segoe UI" font-weight="700"><tspan x="0" y="0">Filter</tspan></text></g></g><g transform="translate(28 153)" clip-path="url(#e)"><g transform="translate(-28 -173)"><g transform="matrix(1, 0, 0, 1, 0, 20)" filter="url(#f)"><g transform="translate(37 159)" fill="#fff" stroke="#dcdcdc" stroke-width="1"><rect width="350" height="115" rx="4" stroke="none"/><rect x="0.5" y="0.5" width="349" height="114" rx="3.5" fill="none"/></g></g><rect width="76" height="76" rx="7" transform="translate(51 194)" fill="#d9d9d9"/><text transform="translate(142 209)" fill="#707070" font-size="12" font-family="SegoeUI-Bold, Segoe UI" font-weight="700"><tspan x="0" y="0">Nama Pemesan</tspan></text><text transform="translate(291 280.145)" fill="#707070" font-size="8" font-family="SegoeUI-Italic, Segoe UI" font-style="italic"><tspan x="0" y="0">Dec 10, 2020 </tspan><tspan y="0" font-family="SegoeUI-Bold, Segoe UI" font-weight="700" font-style="normal">07.00AM</tspan></text><text transform="translate(142 213)" fill="#707070" font-size="8" font-family="SegoeUI, Segoe UI"><tspan x="0" y="9">Lorem Ipsum dorLorem Ipsum dorLorem Ipsum dorLorem Ipsum </tspan><tspan x="0" y="20">dorLorem Ipsum dorLorem Ipsum dorLorem Ipsum </tspan><tspan x="0" y="31">dorLoremLorem Ipsum.... </tspan></text><rect width="44" height="15" rx="4" transform="translate(142 255)" fill="#0030a0"/><text transform="translate(150 256)" fill="#fff" font-size="8" font-family="SegoeUI, Segoe UI"><tspan x="0" y="9">Pesanan</tspan></text></g><g transform="translate(-28 -43)"><g transform="matrix(1, 0, 0, 1, 0, -110)" filter="url(#h)"><g transform="translate(37 289)" fill="#fff" stroke="#dcdcdc" stroke-width="1"><rect width="350" height="115" rx="4" stroke="none"/><rect x="0.5" y="0.5" width="349" height="114" rx="3.5" fill="none"/></g></g><rect width="76" height="76" rx="7" transform="translate(51 194)" fill="#d9d9d9"/><text transform="translate(142 209)" fill="#707070" font-size="12" font-family="SegoeUI-Bold, Segoe UI" font-weight="700"><tspan x="0" y="0">Nama Pengirim</tspan></text><text transform="translate(291 280.145)" fill="#707070" font-size="8" font-family="SegoeUI-Italic, Segoe UI" font-style="italic"><tspan x="0" y="0">Dec 10, 2020 </tspan><tspan y="0" font-family="SegoeUI-Bold, Segoe UI" font-weight="700" font-style="normal">07.00AM</tspan></text><text transform="translate(142 213)" fill="#707070" font-size="8" font-family="SegoeUI, Segoe UI"><tspan x="0" y="9">Lorem Ipsum dorLorem Ipsum dorLorem Ipsum dorLorem Ipsum </tspan><tspan x="0" y="20">dorLorem Ipsum dorLorem Ipsum dorLorem Ipsum </tspan><tspan x="0" y="31">dorLoremLorem Ipsum.... </tspan></text><rect width="44" height="15" rx="4" transform="translate(142 255)" fill="#0030a0"/><text transform="translate(150 256)" fill="#fff" font-size="8" font-family="SegoeUI, Segoe UI"><tspan x="0" y="9">Pesanan</tspan></text></g><g transform="translate(-28 87)"><g transform="matrix(1, 0, 0, 1, 0, -240)" filter="url(#j)"><g transform="translate(37 419)" fill="#fff" stroke="#dcdcdc" stroke-width="1"><rect width="350" height="115" rx="4" stroke="none"/><rect x="0.5" y="0.5" width="349" height="114" rx="3.5" fill="none"/></g></g><rect width="76" height="76" rx="7" transform="translate(51 194)" fill="#d9d9d9"/><text transform="translate(142 209)" fill="#707070" font-size="12" font-family="SegoeUI-Bold, Segoe UI" font-weight="700"><tspan x="0" y="0">Nama Pengirim</tspan></text><text transform="translate(291 280.145)" fill="#707070" font-size="8" font-family="SegoeUI-Italic, Segoe UI" font-style="italic"><tspan x="0" y="0">Dec 10, 2020 </tspan><tspan y="0" font-family="SegoeUI-Bold, Segoe UI" font-weight="700" font-style="normal">07.00AM</tspan></text><text transform="translate(142 213)" fill="#707070" font-size="8" font-family="SegoeUI, Segoe UI"><tspan x="0" y="9">Lorem Ipsum dorLorem Ipsum dorLorem Ipsum dorLorem Ipsum </tspan><tspan x="0" y="20">dorLorem Ipsum dorLorem Ipsum dorLorem Ipsum </tspan><tspan x="0" y="31">dorLoremLorem Ipsum.... </tspan></text><rect width="44" height="15" rx="4" transform="translate(142 255)" fill="#0030a0"/><text transform="translate(150 256)" fill="#fff" font-size="8" font-family="SegoeUI, Segoe UI"><tspan x="0" y="9">Pesanan</tspan></text></g><g transform="translate(-28 217)"><g transform="matrix(1, 0, 0, 1, 0, -370)" filter="url(#l)"><g transform="translate(37 549)" fill="#fff" stroke="#dcdcdc" stroke-width="1"><rect width="350" height="115" rx="4" stroke="none"/><rect x="0.5" y="0.5" width="349" height="114" rx="3.5" fill="none"/></g></g><rect width="76" height="76" rx="7" transform="translate(51 194)" fill="#d9d9d9"/><text transform="translate(142 209)" fill="#707070" font-size="12" font-family="SegoeUI-Bold, Segoe UI" font-weight="700"><tspan x="0" y="0">Nama Pengirim</tspan></text><text transform="translate(291 280.145)" fill="#707070" font-size="8" font-family="SegoeUI-Italic, Segoe UI" font-style="italic"><tspan x="0" y="0">Dec 10, 2020 </tspan><tspan y="0" font-family="SegoeUI-Bold, Segoe UI" font-weight="700" font-style="normal">07.00AM</tspan></text><text transform="translate(142 213)" fill="#707070" font-size="8" font-family="SegoeUI, Segoe UI"><tspan x="0" y="9">Lorem Ipsum dorLorem Ipsum dorLorem Ipsum dorLorem Ipsum </tspan><tspan x="0" y="20">dorLorem Ipsum dorLorem Ipsum dorLorem Ipsum </tspan><tspan x="0" y="31">dorLoremLorem Ipsum.... </tspan></text><rect width="44" height="15" rx="4" transform="translate(142 255)" fill="#0030a0"/><text transform="translate(150 256)" fill="#fff" font-size="8" font-family="SegoeUI, Segoe UI"><tspan x="0" y="9">Pesanan</tspan></text></g><g transform="translate(-28 347)"><g transform="matrix(1, 0, 0, 1, 0, -500)" filter="url(#n)"><g transform="translate(37 679)" fill="#fff" stroke="#dcdcdc" stroke-width="1"><rect width="350" height="115" rx="4" stroke="none"/><rect x="0.5" y="0.5" width="349" height="114" rx="3.5" fill="none"/></g></g><rect width="76" height="76" rx="7" transform="translate(51 194)" fill="#d9d9d9"/><text transform="translate(142 209)" fill="#707070" font-size="12" font-family="SegoeUI-Bold, Segoe UI" font-weight="700"><tspan x="0" y="0">Nama Pengirim</tspan></text><text transform="translate(291 280.145)" fill="#707070" font-size="8" font-family="SegoeUI-Italic, Segoe UI" font-style="italic"><tspan x="0" y="0">Dec 10, 2020 </tspan><tspan y="0" font-family="SegoeUI-Bold, Segoe UI" font-weight="700" font-style="normal">07.00AM</tspan></text><text transform="translate(142 213)" fill="#707070" font-size="8" font-family="SegoeUI, Segoe UI"><tspan x="0" y="9">Lorem Ipsum dorLorem Ipsum dorLorem Ipsum dorLorem Ipsum </tspan><tspan x="0" y="20">dorLorem Ipsum dorLorem Ipsum dorLorem Ipsum </tspan><tspan x="0" y="31">dorLoremLorem Ipsum.... </tspan></text><rect width="44" height="15" rx="4" transform="translate(142 255)" fill="#0030a0"/><text transform="translate(150 256)" fill="#fff" font-size="8" font-family="SegoeUI, Segoe UI"><tspan x="0" y="9">Pesanan</tspan></text></g><g transform="translate(-28 477)"><g transform="matrix(1, 0, 0, 1, 0, -630)" filter="url(#p)"><g transform="translate(37 809)" fill="#fff" stroke="#dcdcdc" stroke-width="1"><rect width="350" height="115" rx="4" stroke="none"/><rect x="0.5" y="0.5" width="349" height="114" rx="3.5" fill="none"/></g></g><rect width="76" height="76" rx="7" transform="translate(51 194)" fill="#d9d9d9"/><text transform="translate(142 209)" fill="#707070" font-size="12" font-family="SegoeUI-Bold, Segoe UI" font-weight="700"><tspan x="0" y="0">Nama Pengirim</tspan></text><text transform="translate(291 280.145)" fill="#707070" font-size="8" font-family="SegoeUI-Italic, Segoe UI" font-style="italic"><tspan x="0" y="0">Dec 10, 2020 </tspan><tspan y="0" font-family="SegoeUI-Bold, Segoe UI" font-weight="700" font-style="normal">07.00AM</tspan></text><text transform="translate(142 213)" fill="#707070" font-size="8" font-family="SegoeUI, Segoe UI"><tspan x="0" y="9">Lorem Ipsum dorLorem Ipsum dorLorem Ipsum dorLorem Ipsum </tspan><tspan x="0" y="20">dorLorem Ipsum dorLorem Ipsum dorLorem Ipsum </tspan><tspan x="0" y="31">dorLoremLorem Ipsum.... </tspan></text><rect width="44" height="15" rx="4" transform="translate(142 255)" fill="#0030a0"/><text transform="translate(150 256)" fill="#fff" font-size="8" font-family="SegoeUI, Segoe UI"><tspan x="0" y="9">Pesanan</tspan></text></g><g transform="translate(-28 607)"><g transform="matrix(1, 0, 0, 1, 0, -760)" filter="url(#r)"><g transform="translate(37 939)" fill="#fff" stroke="#dcdcdc" stroke-width="1"><rect width="350" height="115" rx="4" stroke="none"/><rect x="0.5" y="0.5" width="349" height="114" rx="3.5" fill="none"/></g></g><rect width="76" height="76" rx="7" transform="translate(51 194)" fill="#d9d9d9"/><text transform="translate(142 209)" fill="#707070" font-size="12" font-family="SegoeUI-Bold, Segoe UI" font-weight="700"><tspan x="0" y="0">Nama Pengirim</tspan></text><text transform="translate(291 280.145)" fill="#707070" font-size="8" font-family="SegoeUI-Italic, Segoe UI" font-style="italic"><tspan x="0" y="0">Dec 10, 2020 </tspan><tspan y="0" font-family="SegoeUI-Bold, Segoe UI" font-weight="700" font-style="normal">07.00AM</tspan></text><text transform="translate(142 213)" fill="#707070" font-size="8" font-family="SegoeUI, Segoe UI"><tspan x="0" y="9">Lorem Ipsum dorLorem Ipsum dorLorem Ipsum dorLorem Ipsum </tspan><tspan x="0" y="20">dorLorem Ipsum dorLorem Ipsum dorLorem Ipsum </tspan><tspan x="0" y="31">dorLoremLorem Ipsum.... </tspan></text><rect width="44" height="15" rx="4" transform="translate(142 255)" fill="#0030a0"/><text transform="translate(150 256)" fill="#fff" font-size="8" font-family="SegoeUI, Segoe UI"><tspan x="0" y="9">Pesanan</tspan></text></g><g transform="translate(-28 737)"><g transform="matrix(1, 0, 0, 1, 0, -890)" filter="url(#t)"><g transform="translate(37 1069)" fill="#fff" stroke="#dcdcdc" stroke-width="1"><rect width="350" height="115" rx="4" stroke="none"/><rect x="0.5" y="0.5" width="349" height="114" rx="3.5" fill="none"/></g></g><rect width="76" height="76" rx="7" transform="translate(51 194)" fill="#d9d9d9"/><text transform="translate(142 209)" fill="#707070" font-size="12" font-family="SegoeUI-Bold, Segoe UI" font-weight="700"><tspan x="0" y="0">Nama Pengirim</tspan></text><text transform="translate(291 280.145)" fill="#707070" font-size="8" font-family="SegoeUI-Italic, Segoe UI" font-style="italic"><tspan x="0" y="0">Dec 10, 2020 </tspan><tspan y="0" font-family="SegoeUI-Bold, Segoe UI" font-weight="700" font-style="normal">07.00AM</tspan></text><text transform="translate(142 213)" fill="#707070" font-size="8" font-family="SegoeUI, Segoe UI"><tspan x="0" y="9">Lorem Ipsum dorLorem Ipsum dorLorem Ipsum dorLorem Ipsum </tspan><tspan x="0" y="20">dorLorem Ipsum dorLorem Ipsum dorLorem Ipsum </tspan><tspan x="0" y="31">dorLoremLorem Ipsum.... </tspan></text><rect width="44" height="15" rx="4" transform="translate(142 255)" fill="#0030a0"/><text transform="translate(150 256)" fill="#fff" font-size="8" font-family="SegoeUI, Segoe UI"><tspan x="0" y="9">Pesanan</tspan></text></g><g transform="translate(-28 867)"><g transform="matrix(1, 0, 0, 1, 0, -1020)" filter="url(#v)"><g transform="translate(37 1199)" fill="#fff" stroke="#dcdcdc" stroke-width="1"><rect width="350" height="115" rx="4" stroke="none"/><rect x="0.5" y="0.5" width="349" height="114" rx="3.5" fill="none"/></g></g><rect width="76" height="76" rx="7" transform="translate(51 194)" fill="#d9d9d9"/><text transform="translate(142 209)" fill="#707070" font-size="12" font-family="SegoeUI-Bold, Segoe UI" font-weight="700"><tspan x="0" y="0">Nama Pengirim</tspan></text><text transform="translate(291 280.145)" fill="#707070" font-size="8" font-family="SegoeUI-Italic, Segoe UI" font-style="italic"><tspan x="0" y="0">Dec 10, 2020 </tspan><tspan y="0" font-family="SegoeUI-Bold, Segoe UI" font-weight="700" font-style="normal">07.00AM</tspan></text><text transform="translate(142 213)" fill="#707070" font-size="8" font-family="SegoeUI, Segoe UI"><tspan x="0" y="9">Lorem Ipsum dorLorem Ipsum dorLorem Ipsum dorLorem Ipsum </tspan><tspan x="0" y="20">dorLorem Ipsum dorLorem Ipsum dorLorem Ipsum </tspan><tspan x="0" y="31">dorLoremLorem Ipsum.... </tspan></text><rect width="44" height="15" rx="4" transform="translate(142 255)" fill="#0030a0"/><text transform="translate(150 256)" fill="#fff" font-size="8" font-family="SegoeUI, Segoe UI"><tspan x="0" y="9">Pesanan</tspan></text></g></g></g></svg>