<svg xmlns="http://www.w3.org/2000/svg" xmlns:xlink="http://www.w3.org/1999/xlink" width="425" height="877" viewBox="0 0 425 877"><defs><filter id="a" x="-18" y="-15" width="461" height="120" filterUnits="userSpaceOnUse"><feOffset dy="3" input="SourceAlpha"/><feGaussianBlur stdDeviation="6" result="b"/><feFlood flood-opacity="0.078"/><feComposite operator="in" in2="b"/><feComposite in="SourceGraphic"/></filter><clipPath id="c"><rect width="29" height="24" rx="4" transform="translate(37 28.786)" fill="#efefef"/></clipPath><filter id="d" x="29" y="789" width="368" height="82" filterUnits="userSpaceOnUse"><feOffset dy="3" input="SourceAlpha"/><feGaussianBlur stdDeviation="3" result="e"/><feFlood flood-opacity="0.161"/><feComposite operator="in" in2="e"/><feComposite in="SourceGraphic"/></filter><clipPath id="g"><rect width="425" height="877"/></clipPath></defs><g id="f" clip-path="url(#g)"><rect width="425" height="877" fill="#fff"/><rect width="425" height="174" fill="#f3f2f2"/><g transform="matrix(1, 0, 0, 1, 0, 0)" filter="url(#a)"><rect width="425" height="84" fill="#fff"/></g><rect width="425" height="785" transform="translate(0 97)" fill="#fff"/><g transform="translate(35 31)"><g transform="translate(-37 -28.786)" clip-path="url(#c)"><g transform="translate(40.77 31.26)"><path d="M18.339,29.013,8.71,19.385l9.628-9.628" transform="translate(-8.71 -9.756)" fill="none" stroke="#4a4545" stroke-linecap="round" stroke-linejoin="round" stroke-width="3"/><path d="M10.454,22.3H29.978" transform="translate(-9.116 -12.671)" fill="none" stroke="#4a4545" stroke-linecap="round" stroke-linejoin="round" stroke-width="3"/></g></g></g><g transform="translate(354 23.952)"><path d="M3,9A1.5,1.5,0,0,1,4.5,7.5h27a1.5,1.5,0,0,1,0,3H4.5A1.5,1.5,0,0,1,3,9Z" fill="#4a4545"/><path d="M3,18.048a1.5,1.5,0,0,1,1.5-1.5h27a1.5,1.5,0,0,1,0,3H4.5A1.5,1.5,0,0,1,3,18.048Z" fill="#4a4545"/><path d="M4.5,25.6a1.5,1.5,0,0,0,0,3h27a1.5,1.5,0,0,0,0-3Z" fill="#4a4545"/></g><text transform="translate(381 128)" fill="#fff" font-size="7" font-family="SegoeUI-Bold, Segoe UI" font-weight="700"><tspan x="0" y="0">1</tspan></text><g transform="translate(1)"><text transform="translate(132 42)" fill="#707070" font-size="12" font-family="SegoeUI-Bold, Segoe UI" font-weight="700"><tspan x="0" y="0">Uji rizki</tspan></text><text transform="translate(132 46)" fill="#707070" font-size="10" font-family="SegoeUI, Segoe UI"><tspan x="0" y="11">Online</tspan></text><g transform="translate(76 22)" fill="#fff" stroke="#707070" stroke-width="1"><circle cx="23" cy="23" r="23" stroke="none"/><circle cx="23" cy="23" r="22.5" fill="none"/></g><g transform="translate(111 55)" fill="#4fec89" stroke="#fff" stroke-width="1"><circle cx="6" cy="6" r="6" stroke="none"/><circle cx="6" cy="6" r="5.5" fill="none"/></g></g><path d="M454.7-1999.5a16.63,16.63,0,0,1-2.6-.2H433l5.531-13A16.571,16.571,0,0,1,438.2-2016v-17.477a16.5,16.5,0,0,1,16.5-16.5H588.881a16.5,16.5,0,0,1,16.5,16.5V-2016a16.5,16.5,0,0,1-16.5,16.5Z" transform="translate(-396 2174.978)" fill="#f2f2f2"/><path d="M454.7-1999.5a16.63,16.63,0,0,1-2.6-.2H433l5.531-13A16.571,16.571,0,0,1,438.2-2016v-17.477a16.5,16.5,0,0,1,16.5-16.5H588.881a16.5,16.5,0,0,1,16.5,16.5V-2016a16.5,16.5,0,0,1-16.5,16.5Z" transform="translate(-396 2303.522)" fill="#f2f2f2"/><path d="M454.7-1999.5a16.63,16.63,0,0,1-2.6-.2H433l5.531-13A16.571,16.571,0,0,1,438.2-2016v-17.477a16.5,16.5,0,0,1,16.5-16.5H588.881a16.5,16.5,0,0,1,16.5,16.5V-2016a16.5,16.5,0,0,1-16.5,16.5Z" transform="translate(-396 2443.045)" fill="#f2f2f2"/><path d="M21.7,50.477a16.5,16.5,0,0,1-16.5-16.5V29.07a16.571,16.571,0,0,1,.356-3.428L0,12.57H155.881a16.5,16.5,0,0,1,16.5,16.5v4.907a16.5,16.5,0,0,1-16.5,16.5Z" transform="translate(387 247.477) rotate(180)" fill="#2b66ee"/><path d="M21.7,50.477a16.5,16.5,0,0,1-16.5-16.5V29.07a16.571,16.571,0,0,1,.356-3.428L0,12.57H155.881a16.5,16.5,0,0,1,16.5,16.5v4.907a16.5,16.5,0,0,1-16.5,16.5Z" transform="translate(387 376.022) rotate(180)" fill="#2b66ee"/><path d="M21.7,50.477a16.5,16.5,0,0,1-16.5-16.5V29.07a16.571,16.571,0,0,1,.356-3.428L0,12.57H155.881a16.5,16.5,0,0,1,16.5,16.5v4.907a16.5,16.5,0,0,1-16.5,16.5Z" transform="translate(387 515.544) rotate(180)" fill="#2b66ee"/><text transform="translate(37 189.978)" fill="#707070" font-size="10" font-family="SegoeUI, Segoe UI"><tspan x="0" y="0">18.03</tspan></text><text transform="translate(37 318.522)" fill="#707070" font-size="10" font-family="SegoeUI, Segoe UI"><tspan x="0" y="0">18.03</tspan></text><text transform="translate(37 458.045)" fill="#707070" font-size="10" font-family="SegoeUI, Segoe UI"><tspan x="0" y="0">18.03</tspan></text><text transform="translate(333 249.978)" fill="#707070" font-size="10" font-family="SegoeUI, Segoe UI"><tspan x="0" y="0">18.03</tspan></text><text transform="translate(333 378.522)" fill="#707070" font-size="10" font-family="SegoeUI, Segoe UI"><tspan x="0" y="0">18.03</tspan></text><text transform="translate(333 518.045)" fill="#707070" font-size="10" font-family="SegoeUI, Segoe UI"><tspan x="0" y="0">18.03</tspan></text><text transform="translate(64 146.978)" fill="#707070" font-size="10" font-family="SegoeUI, Segoe UI"><tspan x="0" y="0">Hallo Uji!, Kemarin Barang</tspan><tspan x="0" y="14">Udah sampai?</tspan></text><text transform="translate(64 275.522)" fill="#707070" font-size="10" font-family="SegoeUI, Segoe UI"><tspan x="0" y="0">Hallo Uji!, Kemarin Barang</tspan><tspan x="0" y="14">Udah sampai?</tspan></text><text transform="translate(64 415.045)" fill="#707070" font-size="10" font-family="SegoeUI, Segoe UI"><tspan x="0" y="0">Hallo Uji!, Kemarin Barang</tspan><tspan x="0" y="14">Udah sampai?</tspan></text><text transform="translate(234.619 219.239)" fill="#fff" font-size="10" font-family="SegoeUI, Segoe UI"><tspan x="0" y="0">Udah nih bro, Makasih ya!</tspan></text><text transform="translate(234.619 347.783)" fill="#fff" font-size="10" font-family="SegoeUI, Segoe UI"><tspan x="0" y="0">Udah nih bro, Makasih ya!</tspan></text><text transform="translate(234.619 487.306)" fill="#fff" font-size="10" font-family="SegoeUI, Segoe UI"><tspan x="0" y="0">Udah nih bro, Makasih ya!</tspan></text><g transform="translate(359.522 234.561)"><path d="M12.307,8a.443.443,0,0,1,0,.627l-6.2,6.2a.443.443,0,0,1-.627,0l-3.1-3.1a.444.444,0,0,1,.627-.627l2.787,2.788L11.68,8a.443.443,0,0,1,.627,0Z" fill="#4fec89" fill-rule="evenodd"/><path d="M11.675,11.9l-.794-.795a.444.444,0,0,0-.627.627l.795.794Zm.886,2.139.794.795a.443.443,0,0,0,.627,0l6.2-6.2A.444.444,0,0,0,19.556,8l-5.888,5.888-.481-.481-.626.626Z" transform="translate(-4.775 -0.001)" fill="#4fec89"/></g><g transform="translate(359.522 363.105)"><path d="M12.307,8a.443.443,0,0,1,0,.627l-6.2,6.2a.443.443,0,0,1-.627,0l-3.1-3.1a.444.444,0,0,1,.627-.627l2.787,2.788L11.68,8a.443.443,0,0,1,.627,0Z" fill="#4fec89" fill-rule="evenodd"/><path d="M11.675,11.9l-.794-.795a.444.444,0,0,0-.627.627l.795.794Zm.886,2.139.794.795a.443.443,0,0,0,.627,0l6.2-6.2A.444.444,0,0,0,19.556,8l-5.888,5.888-.481-.481-.626.626Z" transform="translate(-4.775 -0.001)" fill="#4fec89"/></g><g transform="translate(359.522 502.628)"><path d="M12.307,8a.443.443,0,0,1,0,.627l-6.2,6.2a.443.443,0,0,1-.627,0l-3.1-3.1a.444.444,0,0,1,.627-.627l2.787,2.788L11.68,8a.443.443,0,0,1,.627,0Z" fill="#4fec89" fill-rule="evenodd"/><path d="M11.675,11.9l-.794-.795a.444.444,0,0,0-.627.627l.795.794Zm.886,2.139.794.795a.443.443,0,0,0,.627,0l6.2-6.2A.444.444,0,0,0,19.556,8l-5.888,5.888-.481-.481-.626.626Z" transform="translate(-4.775 -0.001)" fill="#4fec89"/></g><g transform="translate(1)"><g transform="matrix(1, 0, 0, 1, -1, 0)" filter="url(#d)"><rect width="350" height="64" rx="21" transform="translate(38 795)" fill="#fff"/></g><text transform="translate(117 833)" fill="#707070" font-size="14" font-family="SegoeUI, Segoe UI"><tspan x="-54.537" y="0">Type Something...</tspan></text><path d="M26.265,14.816,5.839,4.6A.919.919,0,0,0,4.53,5.643l2.46,9.071h10.5v1.857H6.991l-2.5,9.043a.945.945,0,0,0,1.346,1.068L26.265,16.469a.928.928,0,0,0,0-1.652Z" transform="translate(330.9 811.355)" fill="#2b66ee"/></g></g></svg>