<svg xmlns="http://www.w3.org/2000/svg" xmlns:xlink="http://www.w3.org/1999/xlink" width="425" height="1335" viewBox="0 0 425 1335"><defs><filter id="a" x="-18" y="-15" width="461" height="120" filterUnits="userSpaceOnUse"><feOffset dy="3" input="SourceAlpha"/><feGaussianBlur stdDeviation="6" result="b"/><feFlood flood-opacity="0.078"/><feComposite operator="in" in2="b"/><feComposite in="SourceGraphic"/></filter><clipPath id="c"><rect width="29" height="24" rx="4" transform="translate(37 28.786)" fill="#efefef"/></clipPath><filter id="d" x="28" y="117" width="368" height="336" filterUnits="userSpaceOnUse"><feOffset dy="3" input="SourceAlpha"/><feGaussianBlur stdDeviation="3" result="e"/><feFlood flood-opacity="0.078"/><feComposite operator="in" in2="e"/><feComposite in="SourceGraphic"/></filter><clipPath id="f"><rect width="368" height="1166" fill="none"/></clipPath><filter id="g" x="29" y="555" width="368" height="133" filterUnits="userSpaceOnUse"><feOffset dy="3" input="SourceAlpha"/><feGaussianBlur stdDeviation="3" result="h"/><feFlood flood-opacity="0.078"/><feComposite operator="in" in2="h"/><feComposite in="SourceGraphic"/></filter><filter id="i" x="29" y="685" width="368" height="133" filterUnits="userSpaceOnUse"><feOffset dy="3" input="SourceAlpha"/><feGaussianBlur stdDeviation="3" result="j"/><feFlood flood-opacity="0.078"/><feComposite operator="in" in2="j"/><feComposite in="SourceGraphic"/></filter><filter id="k" x="29" y="815" width="368" height="133" filterUnits="userSpaceOnUse"><feOffset dy="3" input="SourceAlpha"/><feGaussianBlur stdDeviation="3" result="l"/><feFlood flood-opacity="0.078"/><feComposite operator="in" in2="l"/><feComposite in="SourceGraphic"/></filter><filter id="m" x="29" y="945" width="368" height="133" filterUnits="userSpaceOnUse"><feOffset dy="3" input="SourceAlpha"/><feGaussianBlur stdDeviation="3" result="n"/><feFlood flood-opacity="0.078"/><feComposite operator="in" in2="n"/><feComposite in="SourceGraphic"/></filter><filter id="o" x="29" y="1075" width="368" height="133" filterUnits="userSpaceOnUse"><feOffset dy="3" input="SourceAlpha"/><feGaussianBlur stdDeviation="3" result="p"/><feFlood flood-opacity="0.078"/><feComposite operator="in" in2="p"/><feComposite in="SourceGraphic"/></filter><filter id="q" x="29" y="1205" width="368" height="133" filterUnits="userSpaceOnUse"><feOffset dy="3" input="SourceAlpha"/><feGaussianBlur stdDeviation="3" result="r"/><feFlood flood-opacity="0.078"/><feComposite operator="in" in2="r"/><feComposite in="SourceGraphic"/></filter><filter id="s" x="29" y="1335" width="368" height="133" filterUnits="userSpaceOnUse"><feOffset dy="3" input="SourceAlpha"/><feGaussianBlur stdDeviation="3" result="t"/><feFlood flood-opacity="0.078"/><feComposite operator="in" in2="t"/><feComposite in="SourceGraphic"/></filter><filter id="u" x="29" y="1465" width="368" height="133" filterUnits="userSpaceOnUse"><feOffset dy="3" input="SourceAlpha"/><feGaussianBlur stdDeviation="3" result="v"/><feFlood flood-opacity="0.078"/><feComposite operator="in" in2="v"/><feComposite in="SourceGraphic"/></filter><filter id="w" x="29" y="1595" width="368" height="133" filterUnits="userSpaceOnUse"><feOffset dy="3" input="SourceAlpha"/><feGaussianBlur stdDeviation="3" result="x"/><feFlood flood-opacity="0.078"/><feComposite operator="in" in2="x"/><feComposite in="SourceGraphic"/></filter><clipPath id="z"><rect width="425" height="1335"/></clipPath></defs><g id="y" clip-path="url(#z)"><rect width="425" height="1335" fill="#fff"/><rect width="425" height="174" fill="#f3f2f2"/><g transform="matrix(1, 0, 0, 1, 0, 0)" filter="url(#a)"><rect width="425" height="84" fill="#fff"/></g><rect width="425" height="785" transform="translate(0 97)" fill="#fff"/><text transform="translate(73 50)" fill="#707070" font-size="18" font-family="SegoeUI-Bold, Segoe UI" font-weight="700"><tspan x="0" y="0">Statistik</tspan></text><g transform="translate(35 31)"><g transform="translate(-37 -28.786)" clip-path="url(#c)"><g transform="translate(40.77 31.26)"><path d="M18.339,29.013,8.71,19.385l9.628-9.628" transform="translate(-8.71 -9.756)" fill="none" stroke="#4a4545" stroke-linecap="round" stroke-linejoin="round" stroke-width="3"/><path d="M10.454,22.3H29.978" transform="translate(-9.116 -12.671)" fill="none" stroke="#4a4545" stroke-linecap="round" stroke-linejoin="round" stroke-width="3"/></g></g></g><path d="M14.5.857,6,9.358l8.29,8.29,2.09-2.09-6.2-6.2,6.412-6.412Z" transform="translate(47 51.143)" fill="#fff" fill-rule="evenodd"/><g transform="translate(0 -10)"><text transform="translate(333 47)" fill="#fff" font-size="7" font-family="SegoeUI-Bold, Segoe UI" font-weight="700"><tspan x="0" y="0">1</tspan></text></g><g transform="matrix(1, 0, 0, 1, 0, 0)" filter="url(#d)"><g transform="translate(37 123)" fill="#fff" stroke="#dcdcdc" stroke-width="1"><rect width="350" height="318" rx="4" stroke="none"/><rect x="0.5" y="0.5" width="349" height="317" rx="3.5" fill="none"/></g></g><path d="M-1557-1982v-59a4,4,0,0,1,4-4h342a4,4,0,0,1,4,4v59Z" transform="translate(1594 2168)" fill="#f2f2f2"/><text transform="translate(64 162)" fill="#707070" font-size="18" font-family="SegoeUI-Bold, Segoe UI" font-weight="700"><tspan x="0" y="0">Komisi</tspan></text><text transform="translate(268 162)" fill="#707070" font-size="14" font-family="SegoeUI-Bold, Segoe UI" font-weight="700"><tspan x="0" y="0">1.050.000.Rp</tspan></text><rect width="143" height="64" rx="8" transform="translate(64 205)" fill="#f9f9f9"/><text transform="translate(119 235.5)" fill="#707070" font-size="10" font-family="SegoeUI-Bold, Segoe UI" font-weight="700"><tspan x="0" y="0">Klik</tspan></text><text transform="translate(119 247.5)" fill="#707070" font-size="8" font-family="SegoeUI, Segoe UI"><tspan x="0" y="0">Jumlah Klik di produk</tspan></text><circle cx="17" cy="17" r="17" transform="translate(77 220)" fill="rgba(238,225,43,0.15)"/><text transform="translate(86 243)" fill="#eee12b" font-size="14" font-family="SegoeUI-Bold, Segoe UI" font-weight="700"><tspan x="0" y="0">10</tspan></text><rect width="143" height="64" rx="8" transform="translate(217 205)" fill="#f9f9f9"/><text transform="translate(272 235.5)" fill="#707070" font-size="10" font-family="SegoeUI-Bold, Segoe UI" font-weight="700"><tspan x="0" y="0">Diproses</tspan></text><text transform="translate(272 247.5)" fill="#707070" font-size="8" font-family="SegoeUI, Segoe UI"><tspan x="0" y="0">Jumlah yang diproses</tspan></text><circle cx="17" cy="17" r="17" transform="translate(230 220)" fill="rgba(238,225,43,0.15)"/><text transform="translate(239 243)" fill="#eee12b" font-size="14" font-family="SegoeUI-Bold, Segoe UI" font-weight="700"><tspan x="0" y="0">10</tspan></text><rect width="143" height="64" rx="8" transform="translate(64 275)" fill="#f9f9f9"/><text transform="translate(119 305.5)" fill="#707070" font-size="10" font-family="SegoeUI-Bold, Segoe UI" font-weight="700"><tspan x="0" y="0">Terjual</tspan></text><text transform="translate(119 317.5)" fill="#707070" font-size="8" font-family="SegoeUI, Segoe UI"><tspan x="0" y="0">Jumlah Terjual</tspan></text><circle cx="17" cy="17" r="17" transform="translate(77 290)" fill="rgba(238,225,43,0.15)"/><text transform="translate(86 313)" fill="#eee12b" font-size="14" font-family="SegoeUI-Bold, Segoe UI" font-weight="700"><tspan x="0" y="0">10</tspan></text><rect width="143" height="64" rx="8" transform="translate(217 275)" fill="#f9f9f9"/><text transform="translate(272 305.5)" fill="#707070" font-size="10" font-family="SegoeUI-Bold, Segoe UI" font-weight="700"><tspan x="0" y="0">Penjualan</tspan></text><text transform="translate(272 317.5)" fill="#707070" font-size="8" font-family="SegoeUI, Segoe UI"><tspan x="0" y="0">Jumlah yang terjual</tspan></text><circle cx="17" cy="17" r="17" transform="translate(230 290)" fill="rgba(238,225,43,0.15)"/><text transform="translate(238 313)" fill="#eee12b" font-size="14" font-family="SegoeUI-Bold, Segoe UI" font-weight="700"><tspan x="0" y="0">10</tspan></text><rect width="143" height="64" rx="8" transform="translate(64 345)" fill="#f9f9f9"/><text transform="translate(119 375.5)" fill="#707070" font-size="10" font-family="SegoeUI-Bold, Segoe UI" font-weight="700"><tspan x="0" y="0">Pending</tspan></text><text transform="translate(119 387.5)" fill="#707070" font-size="8" font-family="SegoeUI, Segoe UI"><tspan x="0" y="0">Jumlah Klik di produk</tspan></text><circle cx="17" cy="17" r="17" transform="translate(77 360)" fill="rgba(238,225,43,0.15)"/><text transform="translate(86 383)" fill="#eee12b" font-size="14" font-family="SegoeUI-Bold, Segoe UI" font-weight="700"><tspan x="0" y="0">10</tspan></text><text transform="translate(37 499)" fill="#707070" font-size="18" font-family="SegoeUI-Bold, Segoe UI" font-weight="700"><tspan x="0" y="0">Riwayat Penjualan</tspan></text><g transform="translate(29 555)" clip-path="url(#f)"><g transform="translate(-28 -173)"><g transform="matrix(1, 0, 0, 1, -1, -382)" filter="url(#g)"><g transform="translate(38 561)" fill="#fff" stroke="#dcdcdc" stroke-width="1"><rect width="350" height="115" rx="4" stroke="none"/><rect x="0.5" y="0.5" width="349" height="114" rx="3.5" fill="none"/></g></g><rect width="76" height="76" rx="7" transform="translate(51 194)" fill="#d9d9d9"/><text transform="translate(142 209)" fill="#707070" font-size="12" font-family="SegoeUI-Bold, Segoe UI" font-weight="700"><tspan x="0" y="0">Nama Pemesan</tspan></text><text transform="translate(291 280.145)" fill="#707070" font-size="8" font-family="SegoeUI-Italic, Segoe UI" font-style="italic"><tspan x="0" y="0">Dec 10, 2020 </tspan><tspan y="0" font-family="SegoeUI-Bold, Segoe UI" font-weight="700" font-style="normal">07.00AM</tspan></text><text transform="translate(142 213)" fill="#707070" font-size="8" font-family="SegoeUI, Segoe UI"><tspan x="0" y="9">Lorem Ipsum dorLorem Ipsum dorLorem Ipsum dorLorem Ipsum </tspan><tspan x="0" y="20">dorLorem Ipsum dorLorem Ipsum dorLorem Ipsum </tspan><tspan x="0" y="31">dorLoremLorem Ipsum.... </tspan></text><rect width="44" height="15" rx="4" transform="translate(142 255)" fill="#eee12b"/><text transform="translate(150 256)" fill="#fff" font-size="8" font-family="SegoeUI, Segoe UI"><tspan x="0" y="9">Pesanan</tspan></text></g><g transform="translate(-28 -43)"><g transform="matrix(1, 0, 0, 1, -1, -512)" filter="url(#i)"><g transform="translate(38 691)" fill="#fff" stroke="#dcdcdc" stroke-width="1"><rect width="350" height="115" rx="4" stroke="none"/><rect x="0.5" y="0.5" width="349" height="114" rx="3.5" fill="none"/></g></g><rect width="76" height="76" rx="7" transform="translate(51 194)" fill="#d9d9d9"/><text transform="translate(142 209)" fill="#707070" font-size="12" font-family="SegoeUI-Bold, Segoe UI" font-weight="700"><tspan x="0" y="0">Nama Pengirim</tspan></text><text transform="translate(291 280.145)" fill="#707070" font-size="8" font-family="SegoeUI-Italic, Segoe UI" font-style="italic"><tspan x="0" y="0">Dec 10, 2020 </tspan><tspan y="0" font-family="SegoeUI-Bold, Segoe UI" font-weight="700" font-style="normal">07.00AM</tspan></text><text transform="translate(142 213)" fill="#707070" font-size="8" font-family="SegoeUI, Segoe UI"><tspan x="0" y="9">Lorem Ipsum dorLorem Ipsum dorLorem Ipsum dorLorem Ipsum </tspan><tspan x="0" y="20">dorLorem Ipsum dorLorem Ipsum dorLorem Ipsum </tspan><tspan x="0" y="31">dorLoremLorem Ipsum.... </tspan></text><rect width="44" height="15" rx="4" transform="translate(142 255)" fill="#eee12b"/><text transform="translate(150 256)" fill="#fff" font-size="8" font-family="SegoeUI, Segoe UI"><tspan x="0" y="9">Pesanan</tspan></text></g><g transform="translate(-28 87)"><g transform="matrix(1, 0, 0, 1, -1, -642)" filter="url(#k)"><g transform="translate(38 821)" fill="#fff" stroke="#dcdcdc" stroke-width="1"><rect width="350" height="115" rx="4" stroke="none"/><rect x="0.5" y="0.5" width="349" height="114" rx="3.5" fill="none"/></g></g><rect width="76" height="76" rx="7" transform="translate(51 194)" fill="#d9d9d9"/><text transform="translate(142 209)" fill="#707070" font-size="12" font-family="SegoeUI-Bold, Segoe UI" font-weight="700"><tspan x="0" y="0">Nama Pengirim</tspan></text><text transform="translate(291 280.145)" fill="#707070" font-size="8" font-family="SegoeUI-Italic, Segoe UI" font-style="italic"><tspan x="0" y="0">Dec 10, 2020 </tspan><tspan y="0" font-family="SegoeUI-Bold, Segoe UI" font-weight="700" font-style="normal">07.00AM</tspan></text><text transform="translate(142 213)" fill="#707070" font-size="8" font-family="SegoeUI, Segoe UI"><tspan x="0" y="9">Lorem Ipsum dorLorem Ipsum dorLorem Ipsum dorLorem Ipsum </tspan><tspan x="0" y="20">dorLorem Ipsum dorLorem Ipsum dorLorem Ipsum </tspan><tspan x="0" y="31">dorLoremLorem Ipsum.... </tspan></text><rect width="44" height="15" rx="4" transform="translate(142 255)" fill="#eee12b"/><text transform="translate(150 256)" fill="#fff" font-size="8" font-family="SegoeUI, Segoe UI"><tspan x="0" y="9">Pesanan</tspan></text></g><g transform="translate(-28 217)"><g transform="matrix(1, 0, 0, 1, -1, -772)" filter="url(#m)"><g transform="translate(38 951)" fill="#fff" stroke="#dcdcdc" stroke-width="1"><rect width="350" height="115" rx="4" stroke="none"/><rect x="0.5" y="0.5" width="349" height="114" rx="3.5" fill="none"/></g></g><rect width="76" height="76" rx="7" transform="translate(51 194)" fill="#d9d9d9"/><text transform="translate(142 209)" fill="#707070" font-size="12" font-family="SegoeUI-Bold, Segoe UI" font-weight="700"><tspan x="0" y="0">Nama Pengirim</tspan></text><text transform="translate(291 280.145)" fill="#707070" font-size="8" font-family="SegoeUI-Italic, Segoe UI" font-style="italic"><tspan x="0" y="0">Dec 10, 2020 </tspan><tspan y="0" font-family="SegoeUI-Bold, Segoe UI" font-weight="700" font-style="normal">07.00AM</tspan></text><text transform="translate(142 213)" fill="#707070" font-size="8" font-family="SegoeUI, Segoe UI"><tspan x="0" y="9">Lorem Ipsum dorLorem Ipsum dorLorem Ipsum dorLorem Ipsum </tspan><tspan x="0" y="20">dorLorem Ipsum dorLorem Ipsum dorLorem Ipsum </tspan><tspan x="0" y="31">dorLoremLorem Ipsum.... </tspan></text><rect width="44" height="15" rx="4" transform="translate(142 255)" fill="#eee12b"/><text transform="translate(150 256)" fill="#fff" font-size="8" font-family="SegoeUI, Segoe UI"><tspan x="0" y="9">Pesanan</tspan></text></g><g transform="translate(-28 347)"><g transform="matrix(1, 0, 0, 1, -1, -902)" filter="url(#o)"><g transform="translate(38 1081)" fill="#fff" stroke="#dcdcdc" stroke-width="1"><rect width="350" height="115" rx="4" stroke="none"/><rect x="0.5" y="0.5" width="349" height="114" rx="3.5" fill="none"/></g></g><rect width="76" height="76" rx="7" transform="translate(51 194)" fill="#d9d9d9"/><text transform="translate(142 209)" fill="#707070" font-size="12" font-family="SegoeUI-Bold, Segoe UI" font-weight="700"><tspan x="0" y="0">Nama Pengirim</tspan></text><text transform="translate(291 280.145)" fill="#707070" font-size="8" font-family="SegoeUI-Italic, Segoe UI" font-style="italic"><tspan x="0" y="0">Dec 10, 2020 </tspan><tspan y="0" font-family="SegoeUI-Bold, Segoe UI" font-weight="700" font-style="normal">07.00AM</tspan></text><text transform="translate(142 213)" fill="#707070" font-size="8" font-family="SegoeUI, Segoe UI"><tspan x="0" y="9">Lorem Ipsum dorLorem Ipsum dorLorem Ipsum dorLorem Ipsum </tspan><tspan x="0" y="20">dorLorem Ipsum dorLorem Ipsum dorLorem Ipsum </tspan><tspan x="0" y="31">dorLoremLorem Ipsum.... </tspan></text><rect width="44" height="15" rx="4" transform="translate(142 255)" fill="#eee12b"/><text transform="translate(150 256)" fill="#fff" font-size="8" font-family="SegoeUI, Segoe UI"><tspan x="0" y="9">Pesanan</tspan></text></g><g transform="translate(-28 477)"><g transform="matrix(1, 0, 0, 1, -1, -1032)" filter="url(#q)"><g transform="translate(38 1211)" fill="#fff" stroke="#dcdcdc" stroke-width="1"><rect width="350" height="115" rx="4" stroke="none"/><rect x="0.5" y="0.5" width="349" height="114" rx="3.5" fill="none"/></g></g><rect width="76" height="76" rx="7" transform="translate(51 194)" fill="#d9d9d9"/><text transform="translate(142 209)" fill="#707070" font-size="12" font-family="SegoeUI-Bold, Segoe UI" font-weight="700"><tspan x="0" y="0">Nama Pengirim</tspan></text><text transform="translate(291 280.145)" fill="#707070" font-size="8" font-family="SegoeUI-Italic, Segoe UI" font-style="italic"><tspan x="0" y="0">Dec 10, 2020 </tspan><tspan y="0" font-family="SegoeUI-Bold, Segoe UI" font-weight="700" font-style="normal">07.00AM</tspan></text><text transform="translate(142 213)" fill="#707070" font-size="8" font-family="SegoeUI, Segoe UI"><tspan x="0" y="9">Lorem Ipsum dorLorem Ipsum dorLorem Ipsum dorLorem Ipsum </tspan><tspan x="0" y="20">dorLorem Ipsum dorLorem Ipsum dorLorem Ipsum </tspan><tspan x="0" y="31">dorLoremLorem Ipsum.... </tspan></text><rect width="44" height="15" rx="4" transform="translate(142 255)" fill="#eee12b"/><text transform="translate(150 256)" fill="#fff" font-size="8" font-family="SegoeUI, Segoe UI"><tspan x="0" y="9">Pesanan</tspan></text></g><g transform="translate(-28 607)"><g transform="matrix(1, 0, 0, 1, -1, -1162)" filter="url(#s)"><g transform="translate(38 1341)" fill="#fff" stroke="#dcdcdc" stroke-width="1"><rect width="350" height="115" rx="4" stroke="none"/><rect x="0.5" y="0.5" width="349" height="114" rx="3.5" fill="none"/></g></g><rect width="76" height="76" rx="7" transform="translate(51 194)" fill="#d9d9d9"/><text transform="translate(142 209)" fill="#707070" font-size="12" font-family="SegoeUI-Bold, Segoe UI" font-weight="700"><tspan x="0" y="0">Nama Pengirim</tspan></text><text transform="translate(291 280.145)" fill="#707070" font-size="8" font-family="SegoeUI-Italic, Segoe UI" font-style="italic"><tspan x="0" y="0">Dec 10, 2020 </tspan><tspan y="0" font-family="SegoeUI-Bold, Segoe UI" font-weight="700" font-style="normal">07.00AM</tspan></text><text transform="translate(142 213)" fill="#707070" font-size="8" font-family="SegoeUI, Segoe UI"><tspan x="0" y="9">Lorem Ipsum dorLorem Ipsum dorLorem Ipsum dorLorem Ipsum </tspan><tspan x="0" y="20">dorLorem Ipsum dorLorem Ipsum dorLorem Ipsum </tspan><tspan x="0" y="31">dorLoremLorem Ipsum.... </tspan></text><rect width="44" height="15" rx="4" transform="translate(142 255)" fill="#eee12b"/><text transform="translate(150 256)" fill="#fff" font-size="8" font-family="SegoeUI, Segoe UI"><tspan x="0" y="9">Pesanan</tspan></text></g><g transform="translate(-28 737)"><g transform="matrix(1, 0, 0, 1, -1, -1292)" filter="url(#u)"><g transform="translate(38 1471)" fill="#fff" stroke="#dcdcdc" stroke-width="1"><rect width="350" height="115" rx="4" stroke="none"/><rect x="0.5" y="0.5" width="349" height="114" rx="3.5" fill="none"/></g></g><rect width="76" height="76" rx="7" transform="translate(51 194)" fill="#d9d9d9"/><text transform="translate(142 209)" fill="#707070" font-size="12" font-family="SegoeUI-Bold, Segoe UI" font-weight="700"><tspan x="0" y="0">Nama Pengirim</tspan></text><text transform="translate(291 280.145)" fill="#707070" font-size="8" font-family="SegoeUI-Italic, Segoe UI" font-style="italic"><tspan x="0" y="0">Dec 10, 2020 </tspan><tspan y="0" font-family="SegoeUI-Bold, Segoe UI" font-weight="700" font-style="normal">07.00AM</tspan></text><text transform="translate(142 213)" fill="#707070" font-size="8" font-family="SegoeUI, Segoe UI"><tspan x="0" y="9">Lorem Ipsum dorLorem Ipsum dorLorem Ipsum dorLorem Ipsum </tspan><tspan x="0" y="20">dorLorem Ipsum dorLorem Ipsum dorLorem Ipsum </tspan><tspan x="0" y="31">dorLoremLorem Ipsum.... </tspan></text><rect width="44" height="15" rx="4" transform="translate(142 255)" fill="#eee12b"/><text transform="translate(150 256)" fill="#fff" font-size="8" font-family="SegoeUI, Segoe UI"><tspan x="0" y="9">Pesanan</tspan></text></g><g transform="translate(-28 867)"><g transform="matrix(1, 0, 0, 1, -1, -1422)" filter="url(#w)"><g transform="translate(38 1601)" fill="#fff" stroke="#dcdcdc" stroke-width="1"><rect width="350" height="115" rx="4" stroke="none"/><rect x="0.5" y="0.5" width="349" height="114" rx="3.5" fill="none"/></g></g><rect width="76" height="76" rx="7" transform="translate(51 194)" fill="#d9d9d9"/><text transform="translate(142 209)" fill="#707070" font-size="12" font-family="SegoeUI-Bold, Segoe UI" font-weight="700"><tspan x="0" y="0">Nama Pengirim</tspan></text><text transform="translate(291 280.145)" fill="#707070" font-size="8" font-family="SegoeUI-Italic, Segoe UI" font-style="italic"><tspan x="0" y="0">Dec 10, 2020 </tspan><tspan y="0" font-family="SegoeUI-Bold, Segoe UI" font-weight="700" font-style="normal">07.00AM</tspan></text><text transform="translate(142 213)" fill="#707070" font-size="8" font-family="SegoeUI, Segoe UI"><tspan x="0" y="9">Lorem Ipsum dorLorem Ipsum dorLorem Ipsum dorLorem Ipsum </tspan><tspan x="0" y="20">dorLorem Ipsum dorLorem Ipsum dorLorem Ipsum </tspan><tspan x="0" y="31">dorLoremLorem Ipsum.... </tspan></text><rect width="44" height="15" rx="4" transform="translate(142 255)" fill="#eee12b"/><text transform="translate(150 256)" fill="#fff" font-size="8" font-family="SegoeUI, Segoe UI"><tspan x="0" y="9">Pesanan</tspan></text></g></g><g transform="translate(-170 397)"><rect width="66" height="24" rx="4" transform="translate(207 124)" fill="#eee12b"/><g transform="translate(165.789 0.986)"><text transform="translate(52.211 139)" fill="#fff" font-size="10" font-family="SegoeUI-Bold, Segoe UI" font-weight="700"><tspan x="0" y="0">Tertunda</tspan></text></g></g><g transform="translate(69.789 397.986)"><text transform="translate(48.211 139)" fill="#707070" font-size="10" font-family="SegoeUI-Bold, Segoe UI" font-weight="700"><tspan x="0" y="0">Diproses</tspan></text><text transform="translate(106.211 139)" fill="#707070" font-size="10" font-family="SegoeUI-Bold, Segoe UI" font-weight="700"><tspan x="0" y="0">Selesai</tspan></text></g></g></svg>